<svg width="52" height="52" viewBox="0 0 52 52" fill="none" xmlns="http://www.w3.org/2000/svg">
<path d="M12.7 30.993L12.707 29.691L17.096 25.757C17.4507 25.4443 17.691 25.1457 17.817 24.861C17.9477 24.5763 18.013 24.2917 18.013 24.007C18.013 23.6477 17.9337 23.3257 17.775 23.041C17.6163 22.7517 17.397 22.523 17.117 22.355C16.837 22.187 16.515 22.103 16.151 22.103C15.7777 22.103 15.444 22.1917 15.15 22.369C14.8607 22.5417 14.6343 22.7727 14.471 23.062C14.3077 23.3513 14.2283 23.664 14.233 24H12.735C12.735 23.3467 12.882 22.775 13.176 22.285C13.4747 21.7903 13.883 21.4053 14.401 21.13C14.919 20.85 15.5117 20.71 16.179 20.71C16.8137 20.71 17.383 20.8547 17.887 21.144C18.391 21.4287 18.7877 21.8207 19.077 22.32C19.371 22.8193 19.518 23.3887 19.518 24.028C19.518 24.49 19.4573 24.882 19.336 25.204C19.2147 25.526 19.0327 25.8247 18.79 26.1C18.5473 26.3753 18.244 26.674 17.88 26.996L14.492 30.02L14.331 29.6H19.518V30.993H12.7ZM24.1858 31.21C23.6678 31.21 23.1848 31.105 22.7368 30.895C22.2935 30.6803 21.9131 30.3863 21.5958 30.013C21.2785 29.635 21.0521 29.201 20.9168 28.711L22.3238 28.333C22.4031 28.6317 22.5385 28.8907 22.7298 29.11C22.9258 29.3293 23.1545 29.4997 23.4158 29.621C23.6771 29.7377 23.9478 29.796 24.2278 29.796C24.5965 29.796 24.9301 29.7073 25.2288 29.53C25.5321 29.3527 25.7701 29.1147 25.9428 28.816C26.1201 28.5173 26.2088 28.1883 26.2088 27.829C26.2088 27.4603 26.1178 27.1267 25.9358 26.828C25.7585 26.5293 25.5181 26.2937 25.2148 26.121C24.9161 25.9437 24.5871 25.855 24.2278 25.855C23.8171 25.855 23.4695 25.9367 23.1848 26.1C22.9001 26.2633 22.6785 26.4523 22.5198 26.667L21.2458 26.219L21.5538 20.92H26.9928V22.299H22.3028L22.8978 21.746L22.6528 25.715L22.3658 25.344C22.6318 25.078 22.9491 24.875 23.3178 24.735C23.6865 24.595 24.0528 24.525 24.4168 24.525C25.0421 24.525 25.5998 24.6697 26.0898 24.959C26.5845 25.2483 26.9741 25.6427 27.2588 26.142C27.5435 26.6367 27.6858 27.199 27.6858 27.829C27.6858 28.4543 27.5248 29.0237 27.2028 29.537C26.8808 30.0457 26.4538 30.4517 25.9218 30.755C25.3898 31.0583 24.8111 31.21 24.1858 31.21ZM30.6189 31L29.6389 30.02L38.7459 20.92L39.7259 21.907L30.6189 31ZM37.6259 31.21C37.1639 31.21 36.7416 31.098 36.3589 30.874C35.9809 30.6453 35.6776 30.342 35.4489 29.964C35.2202 29.5813 35.1059 29.1567 35.1059 28.69C35.1059 28.2327 35.2226 27.8127 35.4559 27.43C35.6892 27.0473 35.9972 26.7417 36.3799 26.513C36.7626 26.2843 37.1779 26.17 37.6259 26.17C38.0879 26.17 38.5102 26.2843 38.8929 26.513C39.2756 26.737 39.5789 27.0403 39.8029 27.423C40.0316 27.801 40.1459 28.2233 40.1459 28.69C40.1459 29.1567 40.0316 29.5813 39.8029 29.964C39.5789 30.342 39.2756 30.6453 38.8929 30.874C38.5102 31.098 38.0879 31.21 37.6259 31.21ZM37.6259 29.943C37.8546 29.943 38.0622 29.887 38.2489 29.775C38.4402 29.6583 38.5919 29.5043 38.7039 29.313C38.8206 29.1217 38.8789 28.914 38.8789 28.69C38.8789 28.466 38.8206 28.2583 38.7039 28.067C38.5919 27.8757 38.4402 27.724 38.2489 27.612C38.0622 27.4953 37.8546 27.437 37.6259 27.437C37.4019 27.437 37.1942 27.4953 37.0029 27.612C36.8162 27.724 36.6646 27.8757 36.5479 28.067C36.4359 28.2583 36.3799 28.466 36.3799 28.69C36.3799 28.914 36.4359 29.1217 36.5479 29.313C36.6646 29.5043 36.8162 29.6583 37.0029 29.775C37.1942 29.887 37.4019 29.943 37.6259 29.943ZM31.7389 25.75C31.2769 25.75 30.8546 25.638 30.4719 25.414C30.0892 25.1853 29.7836 24.882 29.5549 24.504C29.3309 24.1213 29.2189 23.6967 29.2189 23.23C29.2189 22.7727 29.3356 22.3527 29.5689 21.97C29.8022 21.5873 30.1102 21.2817 30.4929 21.053C30.8756 20.8243 31.2909 20.71 31.7389 20.71C32.2009 20.71 32.6209 20.8243 32.9989 21.053C33.3816 21.277 33.6872 21.5803 33.9159 21.963C34.1446 22.341 34.2589 22.7633 34.2589 23.23C34.2589 23.6967 34.1446 24.1213 33.9159 24.504C33.6872 24.882 33.3816 25.1853 32.9989 25.414C32.6209 25.638 32.2009 25.75 31.7389 25.75ZM31.7389 24.483C31.9629 24.483 32.1706 24.427 32.3619 24.315C32.5532 24.1983 32.7049 24.0443 32.8169 23.853C32.9336 23.6617 32.9919 23.454 32.9919 23.23C32.9919 23.006 32.9336 22.7983 32.8169 22.607C32.7049 22.4157 32.5532 22.264 32.3619 22.152C32.1706 22.0353 31.9629 21.977 31.7389 21.977C31.5149 21.977 31.3072 22.0353 31.1159 22.152C30.9292 22.264 30.7776 22.4157 30.6609 22.607C30.5442 22.7983 30.4859 23.006 30.4859 23.23C30.4859 23.454 30.5442 23.6617 30.6609 23.853C30.7776 24.0443 30.9292 24.1983 31.1159 24.315C31.3026 24.427 31.5102 24.483 31.7389 24.483Z" fill="white"/>
<circle cx="26" cy="26" r="24" stroke="#006838" stroke-opacity="0.2" stroke-width="4"/>
<path d="M2 26C2 22.8483 2.62078 19.7274 3.82689 16.8156C5.033 13.9038 6.80083 11.258 9.02943 9.02944C11.258 6.80083 13.9038 5.03301 16.8156 3.82689C19.7274 2.62078 22.8483 2 26 2" stroke="white" stroke-width="4" stroke-linecap="round"/>
</svg>
