<svg width="52" height="52" viewBox="0 0 52 52" fill="none" xmlns="http://www.w3.org/2000/svg">
<path d="M15.969 32.21C15.451 32.21 14.968 32.105 14.52 31.895C14.0767 31.6803 13.6963 31.3863 13.379 31.013C13.0617 30.635 12.8353 30.201 12.7 29.711L14.107 29.333C14.1863 29.6317 14.3217 29.8907 14.513 30.11C14.709 30.3293 14.9377 30.4997 15.199 30.621C15.4603 30.7377 15.731 30.796 16.011 30.796C16.3797 30.796 16.7133 30.7073 17.012 30.53C17.3153 30.3527 17.5533 30.1147 17.726 29.816C17.9033 29.5173 17.992 29.1883 17.992 28.829C17.992 28.4603 17.901 28.1267 17.719 27.828C17.5417 27.5293 17.3013 27.2937 16.998 27.121C16.6993 26.9437 16.3703 26.855 16.011 26.855C15.6003 26.855 15.2527 26.9367 14.968 27.1C14.6833 27.2633 14.4617 27.4523 14.303 27.667L13.029 27.219L13.337 21.92H18.776V23.299H14.086L14.681 22.746L14.436 26.715L14.149 26.344C14.415 26.078 14.7323 25.875 15.101 25.735C15.4697 25.595 15.836 25.525 16.2 25.525C16.8253 25.525 17.383 25.6697 17.873 25.959C18.3677 26.2483 18.7573 26.6427 19.042 27.142C19.3267 27.6367 19.469 28.199 19.469 28.829C19.469 29.4543 19.308 30.0237 18.986 30.537C18.664 31.0457 18.237 31.4517 17.705 31.755C17.173 32.0583 16.5943 32.21 15.969 32.21ZM24.6561 32.21C23.9701 32.21 23.3634 32.0607 22.8361 31.762C22.3088 31.4587 21.8934 31.0433 21.5901 30.516C21.2914 29.9887 21.1421 29.382 21.1421 28.696V25.224C21.1421 24.538 21.2914 23.9313 21.5901 23.404C21.8934 22.8767 22.3088 22.4637 22.8361 22.165C23.3634 21.8617 23.9701 21.71 24.6561 21.71C25.3421 21.71 25.9488 21.8617 26.4761 22.165C27.0034 22.4637 27.4164 22.8767 27.7151 23.404C28.0184 23.9313 28.1701 24.538 28.1701 25.224V28.696C28.1701 29.382 28.0184 29.9887 27.7151 30.516C27.4164 31.0433 27.0034 31.4587 26.4761 31.762C25.9488 32.0607 25.3421 32.21 24.6561 32.21ZM24.6561 30.81C25.0294 30.81 25.3678 30.7213 25.6711 30.544C25.9791 30.362 26.2241 30.1193 26.4061 29.816C26.5881 29.508 26.6791 29.165 26.6791 28.787V25.119C26.6791 24.7457 26.5881 24.4073 26.4061 24.104C26.2241 23.796 25.9791 23.5533 25.6711 23.376C25.3678 23.194 25.0294 23.103 24.6561 23.103C24.2828 23.103 23.9421 23.194 23.6341 23.376C23.3308 23.5533 23.0881 23.796 22.9061 24.104C22.7241 24.4073 22.6331 24.7457 22.6331 25.119V28.787C22.6331 29.165 22.7241 29.508 22.9061 29.816C23.0881 30.1193 23.3308 30.362 23.6341 30.544C23.9421 30.7213 24.2828 30.81 24.6561 30.81ZM31.3845 32L30.4045 31.02L39.5115 21.92L40.4915 22.907L31.3845 32ZM38.3915 32.21C37.9295 32.21 37.5072 32.098 37.1245 31.874C36.7465 31.6453 36.4432 31.342 36.2145 30.964C35.9859 30.5813 35.8715 30.1567 35.8715 29.69C35.8715 29.2327 35.9882 28.8127 36.2215 28.43C36.4549 28.0473 36.7629 27.7417 37.1455 27.513C37.5282 27.2843 37.9435 27.17 38.3915 27.17C38.8535 27.17 39.2759 27.2843 39.6585 27.513C40.0412 27.737 40.3445 28.0403 40.5685 28.423C40.7972 28.801 40.9115 29.2233 40.9115 29.69C40.9115 30.1567 40.7972 30.5813 40.5685 30.964C40.3445 31.342 40.0412 31.6453 39.6585 31.874C39.2759 32.098 38.8535 32.21 38.3915 32.21ZM38.3915 30.943C38.6202 30.943 38.8279 30.887 39.0145 30.775C39.2059 30.6583 39.3575 30.5043 39.4695 30.313C39.5862 30.1217 39.6445 29.914 39.6445 29.69C39.6445 29.466 39.5862 29.2583 39.4695 29.067C39.3575 28.8757 39.2059 28.724 39.0145 28.612C38.8279 28.4953 38.6202 28.437 38.3915 28.437C38.1675 28.437 37.9599 28.4953 37.7685 28.612C37.5819 28.724 37.4302 28.8757 37.3135 29.067C37.2015 29.2583 37.1455 29.466 37.1455 29.69C37.1455 29.914 37.2015 30.1217 37.3135 30.313C37.4302 30.5043 37.5819 30.6583 37.7685 30.775C37.9599 30.887 38.1675 30.943 38.3915 30.943ZM32.5045 26.75C32.0425 26.75 31.6202 26.638 31.2375 26.414C30.8549 26.1853 30.5492 25.882 30.3205 25.504C30.0965 25.1213 29.9845 24.6967 29.9845 24.23C29.9845 23.7727 30.1012 23.3527 30.3345 22.97C30.5679 22.5873 30.8759 22.2817 31.2585 22.053C31.6412 21.8243 32.0565 21.71 32.5045 21.71C32.9665 21.71 33.3865 21.8243 33.7645 22.053C34.1472 22.277 34.4529 22.5803 34.6815 22.963C34.9102 23.341 35.0245 23.7633 35.0245 24.23C35.0245 24.6967 34.9102 25.1213 34.6815 25.504C34.4529 25.882 34.1472 26.1853 33.7645 26.414C33.3865 26.638 32.9665 26.75 32.5045 26.75ZM32.5045 25.483C32.7285 25.483 32.9362 25.427 33.1275 25.315C33.3189 25.1983 33.4705 25.0443 33.5825 24.853C33.6992 24.6617 33.7575 24.454 33.7575 24.23C33.7575 24.006 33.6992 23.7983 33.5825 23.607C33.4705 23.4157 33.3189 23.264 33.1275 23.152C32.9362 23.0353 32.7285 22.977 32.5045 22.977C32.2805 22.977 32.0729 23.0353 31.8815 23.152C31.6949 23.264 31.5432 23.4157 31.4265 23.607C31.3099 23.7983 31.2515 24.006 31.2515 24.23C31.2515 24.454 31.3099 24.6617 31.4265 24.853C31.5432 25.0443 31.6949 25.1983 31.8815 25.315C32.0682 25.427 32.2759 25.483 32.5045 25.483Z" fill="white"/>
<circle cx="26" cy="26" r="24" stroke="#FF7E07" stroke-width="4"/>
<path d="M26 50C22.8483 50 19.7274 49.3792 16.8156 48.1731C13.9038 46.967 11.258 45.1992 9.02944 42.9706C6.80083 40.742 5.033 38.0962 3.82689 35.1844C2.62078 32.2726 2 29.1517 2 26C2 22.8483 2.62078 19.7274 3.82689 16.8156C5.033 13.9038 6.80083 11.258 9.02944 9.02943C11.258 6.80083 13.9038 5.033 16.8156 3.82689C19.7274 2.62078 22.8483 2 26 2" stroke="white" stroke-width="4" stroke-linecap="round"/>
</svg>
