<svg width="52" height="52" viewBox="0 0 52 52" fill="none" xmlns="http://www.w3.org/2000/svg">
<path d="M13.505 31L17.047 22.313H12.56V20.92H18.622V22.313L15.087 31H13.505ZM23.2971 31.21C22.7791 31.21 22.2961 31.105 21.8481 30.895C21.4048 30.6803 21.0245 30.3863 20.7071 30.013C20.3898 29.635 20.1635 29.201 20.0281 28.711L21.4351 28.333C21.5145 28.6317 21.6498 28.8907 21.8411 29.11C22.0371 29.3293 22.2658 29.4997 22.5271 29.621C22.7885 29.7377 23.0591 29.796 23.3391 29.796C23.7078 29.796 24.0415 29.7073 24.3401 29.53C24.6435 29.3527 24.8815 29.1147 25.0541 28.816C25.2315 28.5173 25.3201 28.1883 25.3201 27.829C25.3201 27.4603 25.2291 27.1267 25.0471 26.828C24.8698 26.5293 24.6295 26.2937 24.3261 26.121C24.0275 25.9437 23.6985 25.855 23.3391 25.855C22.9285 25.855 22.5808 25.9367 22.2961 26.1C22.0115 26.2633 21.7898 26.4523 21.6311 26.667L20.3571 26.219L20.6651 20.92H26.1041V22.299H21.4141L22.0091 21.746L21.7641 25.715L21.4771 25.344C21.7431 25.078 22.0605 24.875 22.4291 24.735C22.7978 24.595 23.1641 24.525 23.5281 24.525C24.1535 24.525 24.7111 24.6697 25.2011 24.959C25.6958 25.2483 26.0855 25.6427 26.3701 26.142C26.6548 26.6367 26.7971 27.199 26.7971 27.829C26.7971 28.4543 26.6361 29.0237 26.3141 29.537C25.9921 30.0457 25.5651 30.4517 25.0331 30.755C24.5011 31.0583 23.9225 31.21 23.2971 31.21ZM29.7302 31L28.7502 30.02L37.8572 20.92L38.8372 21.907L29.7302 31ZM36.7372 31.21C36.2752 31.21 35.8529 31.098 35.4702 30.874C35.0922 30.6453 34.7889 30.342 34.5602 29.964C34.3316 29.5813 34.2172 29.1567 34.2172 28.69C34.2172 28.2327 34.3339 27.8127 34.5672 27.43C34.8006 27.0473 35.1086 26.7417 35.4912 26.513C35.8739 26.2843 36.2892 26.17 36.7372 26.17C37.1992 26.17 37.6216 26.2843 38.0042 26.513C38.3869 26.737 38.6902 27.0403 38.9142 27.423C39.1429 27.801 39.2572 28.2233 39.2572 28.69C39.2572 29.1567 39.1429 29.5813 38.9142 29.964C38.6902 30.342 38.3869 30.6453 38.0042 30.874C37.6216 31.098 37.1992 31.21 36.7372 31.21ZM36.7372 29.943C36.9659 29.943 37.1736 29.887 37.3602 29.775C37.5516 29.6583 37.7032 29.5043 37.8152 29.313C37.9319 29.1217 37.9902 28.914 37.9902 28.69C37.9902 28.466 37.9319 28.2583 37.8152 28.067C37.7032 27.8757 37.5516 27.724 37.3602 27.612C37.1736 27.4953 36.9659 27.437 36.7372 27.437C36.5132 27.437 36.3056 27.4953 36.1142 27.612C35.9276 27.724 35.7759 27.8757 35.6592 28.067C35.5472 28.2583 35.4912 28.466 35.4912 28.69C35.4912 28.914 35.5472 29.1217 35.6592 29.313C35.7759 29.5043 35.9276 29.6583 36.1142 29.775C36.3056 29.887 36.5132 29.943 36.7372 29.943ZM30.8502 25.75C30.3882 25.75 29.9659 25.638 29.5832 25.414C29.2006 25.1853 28.8949 24.882 28.6662 24.504C28.4422 24.1213 28.3302 23.6967 28.3302 23.23C28.3302 22.7727 28.4469 22.3527 28.6802 21.97C28.9136 21.5873 29.2216 21.2817 29.6042 21.053C29.9869 20.8243 30.4022 20.71 30.8502 20.71C31.3122 20.71 31.7322 20.8243 32.1102 21.053C32.4929 21.277 32.7986 21.5803 33.0272 21.963C33.2559 22.341 33.3702 22.7633 33.3702 23.23C33.3702 23.6967 33.2559 24.1213 33.0272 24.504C32.7986 24.882 32.4929 25.1853 32.1102 25.414C31.7322 25.638 31.3122 25.75 30.8502 25.75ZM30.8502 24.483C31.0742 24.483 31.2819 24.427 31.4732 24.315C31.6646 24.1983 31.8162 24.0443 31.9282 23.853C32.0449 23.6617 32.1032 23.454 32.1032 23.23C32.1032 23.006 32.0449 22.7983 31.9282 22.607C31.8162 22.4157 31.6646 22.264 31.4732 22.152C31.2819 22.0353 31.0742 21.977 30.8502 21.977C30.6262 21.977 30.4186 22.0353 30.2272 22.152C30.0406 22.264 29.8889 22.4157 29.7722 22.607C29.6556 22.7983 29.5972 23.006 29.5972 23.23C29.5972 23.454 29.6556 23.6617 29.7722 23.853C29.8889 24.0443 30.0406 24.1983 30.2272 24.315C30.4139 24.427 30.6216 24.483 30.8502 24.483Z" fill="white"/>
<circle cx="26" cy="26" r="24" stroke="#FFC000" stroke-width="4"/>
<path d="M50 26C50 30.7468 48.5924 35.3869 45.9553 39.3337C43.3181 43.2805 39.5698 46.3566 35.1844 48.1731C30.799 49.9896 25.9734 50.4649 21.3178 49.5388C16.6623 48.6128 12.3859 46.327 9.02944 42.9706C5.67298 39.6141 3.3872 35.3377 2.46115 30.6822C1.53511 26.0266 2.01039 21.201 3.82689 16.8156C5.64339 12.4302 8.71953 8.68188 12.6663 6.04473C16.6131 3.40758 21.2532 2 26 2" stroke="white" stroke-width="4" stroke-linecap="round"/>
</svg>
